<mxfile host="Electron" modified="2024-02-14T09:33:09.950Z" agent="Mozilla/5.0 (Windows NT 10.0; Win64; x64) AppleWebKit/537.36 (KHTML, like Gecko) draw.io/21.2.8 Chrome/112.0.5615.165 Electron/24.2.0 Safari/537.36" etag="ruNtrNkEPxaIAuN-WA4e" version="21.2.8" type="device">
  <diagram name="Page-1" id="2XWkQP5S-hDbL94sL5Vg">
    <mxGraphModel dx="2058" dy="1180" grid="1" gridSize="10" guides="1" tooltips="1" connect="1" arrows="1" fold="1" page="1" pageScale="1" pageWidth="3300" pageHeight="4681" background="#999999" math="0" shadow="0">
      <root>
        <mxCell id="0" />
        <mxCell id="1" parent="0" />
        <mxCell id="APLwThIm-aDqV8bCMrbt-1" value="TextInput" style="rounded=0;whiteSpace=wrap;html=1;fontSize=25;fillColor=#dae8fc;strokeColor=#6c8ebf;" vertex="1" parent="1">
          <mxGeometry x="1370" y="80" width="410" height="60" as="geometry" />
        </mxCell>
        <mxCell id="APLwThIm-aDqV8bCMrbt-2" value="" style="shape=image;verticalLabelPosition=bottom;labelBackgroundColor=default;verticalAlign=top;aspect=fixed;imageAspect=0;image=data:image/png,iVBORw0KGgoAAAANSUhEUgAAAjEAAAHFCAYAAAADhKhmAAAAAXNSR0IArs4c6QAAAARnQU1BAACxjwv8YQUAAAAJcEhZcwAADsMAAA7DAcdvqGQAACocSURBVHhe7d0JYBT1ocfx324OIOEwXCJQBCJIQKzcghyKN5cgaaviU1sEeR5tUVtEfWBrq8+Ktl4tPSzVPq14W0RaxatSFC0KKqgggkJIuAxH7s1m38zsbNjE3dzZ7D/5fnTI3Od/Z375z+zEM3DQoEAgoKOsjqOdVlvwf1fl7qZQh6XHZpIYiM8Nic99FSste+sRbzzuz5alTlsdu4nijsfAbQ+uc3AdjrZ65MkYOKj8LHw0zQR/Hu0MDza2il3lovSuSh0mqb0KKa1mYrJeMVHLLWk+G96cNgUwVkwufXVaSEzWrNHFbtNrN1HDLuLoAKfNTWH2j2CIiVr74gwKU7m7sioHRlbLSeqwhDpq/BWL3bY0B3G6t1gt40U9b5ooJhvTrPZYo6rTnqr1RLE5HrFZregTOUPCqpBCNTOejIyBYbkkLKRYLYlJSUpNTVFyUrKSWyUrISGhwc+O4fGpxYnLTY/NSrXgow60KHW6ltVabJZSa3G6WrFgxQu3rYFYs/P7/SouLlZJiU8FBQUq9fnkGWCFmOAYFQNMu3bt1OGYDjqQm6fCYp+KrIl8Pr87AmKvBX8aAMRIS/z1Il63ORbrZdbxTkpMVOtWSWrTKlmdO7bXwYOHQiHmaICxn4vp3Lmz1SdB2fsOqsRXGhyAJkaIAdAUzLrQ1V68bl+s1su842tfDZOTEtWtS0d57Q0IBhj7Z0Dt27Wz2hL05e79BJiYsw9NeAMAQGMy61oTWls7n3y1e6+8RwNMsKrGvoVk18CgsYSHlMoNAMQrzlNoXNWVsEjDvPY/wSAjpbZNdZ6BoQYmXoQOaVWHFQAaG+cgNK1oJdBb/m4Y66f9LST7IV40Fk4EAExkXydCTXPDedlkTk2MHWDsoml/jdr+FhIAAC0HQcZUnv4nnuhWxgTU+/je2vR5ljMgmvbtUpSUmOB21Zyv1K/DRwrcrubG/gBU9xsKHxIA8aY51qzUV7zsk1iuR3xsc+gqGWltol1BPf36n+iMbyeZ3r2P1+bPdzsDovn13Xco/YR0tysyj/tWvayc/eXP2+QfPqDrf3KzvN7aB6D4Fr5rqyoIhBgA8aa6i5d93qpunOYmXrY3lusRH9scukpGWptoV1AnxISei6lJiFn2hwc0ftxpblfNrVn7ji69Yq4SEhLdPs0BwQRomRe65so+jlWd10LHufI4zeX4x9N2BNfl9sU36/JLLw6+MT8C+y22j/zf3/Q/P7vD7VMXDb/da19bpRsXLtbade+6fSoaM2qk7r7jNp125iS3z9FSFWltopXKWoeYRx9+SD17puv5t7bK4w0EmwS7KdOkb5+gbsd2UF5evjNuamqqnvn3dqe9T7uCKkPMmtdWqo+1/Mou/N7lWvfeerer9j5ev0az5/2oXvOIrKoPOmCqqk4jkYR/Dhr+RAiTmH7843H9A/pq60c6e9IMZe/Z4/arqGNamv61eqV69Rvs9qmLht92O6Q8+Jtf6dof//QbQSbasLqEmOCDvbVg/z0EjydB2w/laceRI/qy4LB2Fh/SLt9B+XxlCgSsxv0vJCG5+j9XMHbiZPXoe5KWPfq43v9go9NuN7UNH3ZoGTVimNtVV/buitSEHG3P+uIjtw2IF+FlNZaaarlAfdjXqngMMDaPUwNjB5jDh49EbHZ8+VXUWpqmZIcTO6TYYcUOLSFVhZu6qHWI8ZeVOT+7dGolT3KpDpUe1r6iA9pTuM/p76lUFlqnFSmls0kP9FZ1IraHcaJGPAuVz2jllDIMIDYqB5mGDjC2WoeYUEb5ZM8ubT+YrYOluSrUEZV48pz+Aff8GPoLlqnH5CmlbXBYXdi1KllffFze2N2zr5jltIeseOYxp7FrYdLSjtGzyx9xbk9VZg//xW03l8/Lfr4nxO7+xW23WD8/chp7frZRI4Za073ltNvCu0O1MOHjA/GjclgJ744WZGr7W2lo/NpOB6AlCA8yDR1gbFaIcU889nMxNTgHhU59hVZoSWrjU1JrnxJblSjJahzWPML/BPeALt/SCcf0dbtqzw4koVtL9vMx99z1cz38l8ec2052cLADjR1cps6cpZOGjVVu7kFnPPv2VCSnjz+tfF7nnHWG2zfo24MHWcMGO83QISc7866KPV7op718oP7sz060gGGranhV00VSk/GrWh5gltAvsBWbTd9oYI5a18SEOOHFapJa2U1YiLHOd+FZ6IS0dKepi1CICBU2O9CEHv699bY7nPDy80ULowaWSG5YsMj5aT9rYwee8OdnwoPIy6tf19gxo9wuoLFVDgvVBYe6jB9JddOFhJZX0/FD6jJ+XZYDVC/0C3HFxv7ltWITf8z9PITfQgq/tdRQ6hxiggEmGF6S7Z/JwRAT/KZTKMYEVOLzqbCwyO2uve07vrQKVcVC1/AiF5Cs3TluG9CYanqCijSe3a++J7ho09e2f0honULjhbej+TL1GFM2G2sfVH4GpvIzMg2h9iHG2tbi4kKN6pyu4Wn9NLR9f52SmqGT2wxy+gdHCe4QO8+UlZWVPwxcW/ZtI7vmJdJtHfvZFrsmJXRbKeTgoUM6adAAtytc9QfJnqfNfu7FvtW0YuU/tO69950aH7ufbd6cK5yfIcHanOAwoGGFl9m6nmRqOl3l8Rp7edGEfgkK/SIEs9jHv75loCnE73rb74Gxv0YdTbduxzrjxJtoD/E2dJCpdYix80jGid/SVWecpasmnKM5487XleOmafZpF2jAiT2VkpKqrl27qGOnjkpKTnJCjNdb98Kx6Od3OreMQreU7MBih43vX3aJc/sndFspFGS2fv6FM36kB3urYz8TYz+ka9+2Wvbo35wAY7NvLdn97GGdO3Vy+oVs3/GVM4wHexFdVeU/FifOmi6jvutS3fR1mb89TX3XC6ip+Ctvj/zfE/rX6het68/miM27b612XnYXT+y39tsvsqscYEJCQWbJnT9z+9Sdp1///u4dIPvPDvTW5m1Vv+zux9fN05BTTna7vsnr9TqNnQxDL9GzfbjxY9396/vljfkbeysXyEi/4XmswvCRQg/qAtHZ5am2tQTRpon1yTJ8Heq77MrbU9P51WXfVVbbeSD2mtMxipdtaez1aNj520EmPAPUROjTHmmqaGeYWocY52V2ZfYL7WrHXgGPFW48njo/hlMHNT2xBr8mTYhB9ar6mEVSl49lYwqtR0MsO3ybajq/yvvBni7avqxqntGmQfxoTscoHrYlFuvQtNsZ+sRHWotoZ4NaJwo7hNi1KfafD6hNY08TrwEGqDn74xUPJ7S6sj8XDfXZCM2rNvMLnyY0XW2mD4k2Tfh80bQ4DuaJj2NWeS2qWqtYpooYqv2BoBYGDcMue+ENGk/l/Rvezb6PD6HPAcej/mK1D+PjWNW05DSDEBO+qTXZZKCxUPbqrvK+q+m+DH3mI41f1bBIajt+S9FQNY/h+7dyg5phX1XmDT0PY2YFOQcUja2mZay2ZZGyG1tV7W97WOXhHJ/Yiqf9bfLt4pYnDmtiQieU8CaSaP2BhhIqY9WVtZqURXuc8Abf1Nj7J3z+4U001Q1vKRpzHzi/RbsNUHtxFmKifVhCJ5PwBmhMlctYtDJHWWz+op1zQv0rN6gewQUNI45CDB9+xAvKIiIJDylVlRHKT0UEFjSeZvrtJKCuanNx4mLVMnHca8feXybts5qua2i7TNq25qcJQkz4gQ9vgKZSl3JImW2eGqLWgFqH5if8HBFqEA88J/TrHwh9O6lP79565ZWXg0MAAADiGLeTAACAkQgxAADASIQYAABgJCvEhN7W2xAPtAEAAMQGNTEAAMBIhBgAAGAkQgwAADASIQYAABiJEAMAAIzkOaFfv0DA+VJSwH1j7yvOgOoUFGxz21BbKSnpblvV2MeojZqWKwBoLqiJAQAARiLEAAAAIxFiAACAkbyhl/Taz8Xwvl4AAGAKamIAAICRCDEAAMBIhBgAAGAkQgwAADASIQYAABiJEAMAAIxEiAEAAEYixAAAACMRYtB8BfwqLvHzEkcAaKY86Sf0C9iv67X/69O7j1avbuC/Yn34Yz35yNvKKj16KUkdcoHmpL+lWRe/p+8+d5emd3EH1IY739xBkzV3Ynd53N6+ra/qD/8o1rjvT9LJbd2ecaZB/4p1IEuv/3GVNuSXuT2CPJ5kDZjyXzrvhAS3T8MJ7Hy6fscuBoo+/LO+973f6f2E0/Xg8lFaflV8r29D4K9YA2hpGr8mxpurN373pN7aka1du4LNvjy/PB0G6oLLzlBGqjtetXL0wo3ztHDVwWCnNd83H7pfi665Q0/nBHvZEko/0V+XrtPBllLHFPDrYE6Ws193rn9Rv392s3Zl5Vjducp3R2lotT92sZanN5c+Kd91y7Xjw7s0tWc9yxoAIC7F5lJf1lanXfs/uueexU5zy5TuUtt+mjrrDKW3sYf7VJBfrFJ/iQ7tz1Veqd3Pat+9Uzty8uSza4r8PmV99JlyCguUVxi8RRBISNdZQ7/QLxe9ov32ciIJlOpI9k59kXVQ1mRBoeVZPw/vzlK2FaocxYe0a8dufV1U8QZEad5e7dixV0d8bo9AsY7khTqamLeXZiwK7tcbzuksb4+JumnJIi1Z8kNN6V6sIntfhpQWKa/I2neh7Q+UqWDfLm3Pzlf4aLZvbHO4SMfOClN5OTv15f6iCLdv/CouKIi8Lm5nWWGudm7fqezDpUenLy1WvnXQyuuYnO7SYHekMlOuQHuzi9SuXaIKfQF529W/rJWrbnsbo7wBACKKWX1FwP4Lk+Gyn1Lm8IVaddhtH3G1rr1ssgZ/e66WvveGbpgwUWOmzNP0Mefrv55Yr99On6Vfbdirl274jobO/Is+t+fh92jIdTdqzNpf6tZ/RPitOe8dLRwzXiPOv1oXn3eeTjrnfq2zqyeyn9Z3RszVnItnauLkizQ0fbJu/ONSZY66UFOnzdCAjDlatt2+VBZq4/3f16CBmZoxfaYGDpqtpZ/6tPep+Ro4eIFW5DpLiU+BXfrT9LM1a/let4dfm+67XGfc9LbyrO3PHHGt5s+9UKPPnq2po8bqpO8+ri0l9niRt7mCCsfOntc8XX35DI2fPFtnDByjM5dsVnFwzKCq1sVa3ocPXqlB6edrUuYPNG7AaI27aY0OWGP5Nt6nsePv18fuNb9000MaP/pefWAHj8pl5vNQ1MnRo9+bqQVv5Wj1Ty7U0Euf0a76lrXwolvV9jZSeQMARBabEJOwXy/ceKWmT/+Bpk/7kR7cEOHEnPuZCqc+ou1Zy5X58cNa1edWvfX+Sm344nX9ZcYQXbPicS04paumPLBSW16arX7uZOo4QbfdMUxv/vRevW5dpPz+8t/brYtnB01eukqbN6zQuvV/1hV5z+qv6wqCw/Z/pfbzHtN/PnhDry1oq0cWv6tJz7+sDz5cqd+O2aJH/75dxRv/oHlL03SXdaH7YMPreuXafD14x6tKyLxbH/znl5qSFpxVXPIcr+mXZejTZ/6l3Xa371M9/dRhnX3xCLWzu/dt1J4JD2n9hn/q40//pBlbH9DtL36tkijbbIeKqPZvlf87y7R+/cva8MQk5Ty8XO+6u9lRxbq02rBUc+5rpUXr1uij9a9oy0d3asCzt+jnb7g3wypl3wrCysz1/UNFuZsuW/6M7hrfTefcv0qfPfVd9XSHlKttWQs9cBUSbXsbqbxVue8BoAWL0e2kjjr1kln6wQ8u0g+unKZRXSIsts1AnTuxuxKsVeo+Zpy6r16kC65apte+9KlV66MPpyYmJrptQR7rv67TFup/R76jW+58V/nesCtOu37qc/hFLZ47V+eeMV+Pflms/Hw3QKUN1umn2JfzBPUY0EddMsbp9N72ctKUntFJJbl52rFmrXI7HNGT86/TJZf8SD+zLqyFn3+uPUpV505tyh8mjlc9JmVq+JYVWvVVQPnvPacVSVN16bBWwYEdhivzvB5y9mbKIE06u4O++CQ7+jaHZcNvOGaIJo/t5OyP9ieepL5lX2t/haqY6Ouy89/rlD9hpiZ9K3hcvZ1OVeaZCdqwfvfR20jRhJUZb6UiZa9Lgjch8jGqY1krF217G6u8VbsjAKBlik2ICXh13LAzNW3aOVZzpkb0iPCNmeRUtXOvr8mD5uqfmx/Vj7q/rfkjz9IVz4RuQ3yTx2NfSjpr2i+uU59nfqZ71x+t5Tnw4k0694fr1fOi+fr933+nG4e6C7B5EqyLXKjd+j8p0bq8uJ1OEAqozF8mb68x+v5Vl+jKKy/WnGsX6M9LJum44Gjxr+M4XX5Wrl546UOteep99bxsijJC1+XEVmqd5LbLr0LrYutNsnZIXbbZm6jE0L60gkP5fg0XcV0CCpSVqdRXUiGweD12KLHjqSVQpjK3NsYet8L1PKzM1Eody1q5KNvb4ssbAMRYpMtNkzu8O1v57Qcoc/Hv9MRN3bXh1U+UZ61qYkJAhYXOgxvf4Ok2RXfd9i09ed+/5HMuzn7t3rRNSRMyNWtihnoVf6Q3N9lV+86lsQY86j5ksBLWb1RexmhNnDhWEydk6LiuHZUWOKI9ewurrylocqkac/Fo7X9umR5e21UXTet1dOu/fl8r1+Y6d2vK9v1bT7wc0Kmn9VaPaNtc75ISaV086jlquFLefE4rdwYffCk7sE5PvZagU8f0VFJaF6Ud2KyNOfaeLtFnq9/WLmeshlOXshZZI5a3uPyUAkDTi83psabncdeBF65XRq/TNXzk2Zr0QJIunTNSbdVVo8/spFd/OFNDZizTVnvECvO1LogX3aqbe+/WVudWRoL6TzpXHZfP0ylDztXJF/xT3n4pVv+qHrKoKGXctbpn+jZdPXiMThl5vjL6TtfCNXna8/RPNHTkQq342h0xnlTa162HXagLi97Qx0O/q/OOdXvauvTU4ftn6qSh56j/4Jv1WebtWnhaG6VG2eaGEGldWo+8Rkuvztei4afq5GHWunx7sbLn/Eq3jGotT5/JumbiNi0YfaaGDZ+q+Zs66fjgZA2mRmWtRkWm8cobACCyxn/ZnfUbanG+9Rtt6zZqFX4XqcynwqKAktokK7GsRAVWe3JKKyU6F2G/Cg7s0Z78JHXu1kXtkp0pLFb/fXuUm9xFPTp4nfkGrPmGPcagQEmh8n0JapOa7FTXlxUdVPbeErWz5pPiL5QvMUVtvJWWV1qk/NIkpbozKrPmUahWSk22M15AJQdztMsKLB26dVWnFGsc+yvW+V61a1t+P6ZWGvRld2ECPmvby5LVNnxHl2zS7eOv16G7n9eScfZ3jC1Zf9Oks97Tf6+9U2Pz9iqv7bHqmZYcln8ibHO4qo6d/XXiQr+SUlorqVKgirguLn/efu3cW6TUY49Tl9Tw5fl1JDtLBxK7qFeaV4X2sW2TKK+/cpmpyF9coBKvdaztQ1TvshZ2nCsvt9L2Nkp5qyFedgegpXFCjPP1Z6vp06cxQgwqa6wQU5F1ET5yRLueu1WZjw3Xsy9dofKX94ZCzDv3amoHt1+jqmJd0GAIMQBaGu62N1s5emL2hZr5SJoWLb20YmgIJKh1myR5a36no56qWBcAAOqImpgmEJuaGLQ01MQAaGmoiQEAAEYixAAAACMRYgAAgJEIMQAAwEiEGAAAYCRCDAAAMBIhBgAAGMkKMfYbz2L21jMAAIAGQU0MAAAwkif9hBPcN/aqVm/sBQAAaErUxAAAACMRYgAAgJEIMQAAwEiEGAAAYCRCDAAAMBIhBgAAGIkQAwAAjOS1XxFjvyMm4P4HAABgAmpiAACAkQgxAADASIQYAABgJEIMAAAwEiEGAAAYydM3/YSAAsFvJtl/xfrV1avdQVUrKNjmtqE2UlLS3baqsX9REzUtTwDQHFETAwAAjESIAQAARiLEAAAAIzkhxnlPLy/rBQAABqEmBgAAGIkQAwAAjESIAQAARiLEAAAAIxFiAACAkQgxAADASIQYAABgJEIMAAAwEiEGAAAYyQox9qt67b9h7fxoeIc/1pMPPqJVn/vdHg3AnucDf9TvX9tdYZV9W1/VQw+8pA/z3B7NXSBLr//hT/r1r/9QofnNb/6ifzTk/g4T2Pm0Lhm7QM/vc3vEm6zHNTnjeq045HYDAJqtxq+J8ebqjQef1yeB+iwqRy/cOE8LVx0MdlrzfPOh+7Xomjv0dE6wly2h9BP9dek6HWwp9UsBvw7mZGnXrmztXP+ifv/sZu3KyrG6c5XvjtLQPB0G6oLLzlBGqtsjDtUti1cqYwCAuNe0l/tAqY5k79QXWQdVGF5xUFaiQ7t3akdOnnyBgHWt9inro8+UU1igPGtEp+4oIV1nDf1Cv1z0ivYHp/qmSPMv86kgv1il1s/Du7OUnecOKD6kXTt26+uiipfA0ry92rFjr4743B6BYh3JC3U0MW8vzVi0WPfcs1g3nNNZ3h4TddOSRVqy5Iea0r1YRaXueLbSIuUVWfsutP2BMhXs26Xt2fkKH832jW0O17afps46Q+ltrPbyefmVl7NTX+4vihAg/CouKIi8Lm5nWWGudm7fqezDpUenLy1WvnXQytzOYHdpsDu0XL9VTvbnKq/yBoSrRxkrV912NkY5AwBUq+lCTN47WjhmvEacf7UuPu88nXTO/VpnVx/sf1M3TJioMVPmafqY8/VfT6zXb6fP0q827NVLN3xHQ2f+RZ/b0/s9GnLdjRqz9pe69R8RfnuONv/sp/WdEXM15+KZmjj5Ig1Nn6wb/7hUmaMu1NRpMzQgY46WbbcvlYXaeP/3NWhgpmZMn6mBg2Zr6ac+7X1qvgYOXqAVuc5S4lNgl/40/WzNWr7X7eHXpvsu1xk3va08a/szR1yr+XMv1OizZ2vqqLE66buPa0uJPV7kba4g+yllDl+oVYftdnte83T15TM0fvJsnTFwjM5cslnFwTGDqloXa3kfPnilBqWfr0mZP9C4AaM17qY1OmCN5dt4n8aOv18fu9f+0k0Pafzoe/WBHVjsdRhxta69bLIGf3uuln5eHnUqqk8ZC88YVW1nI5UzAED1mi7EBDpo8tJV2rxhhdat/7OuyHtWf11XoK+e/5NW9blVb72/Uhu+eF1/mTFE16x4XAtO6aopD6zUlpdmq587C3WcoNvuGKY3f3qvXrcuqn5/2MUsyvwd+79S+3mP6T8fvKHXFrTVI4vf1aTnX9YHH67Ub8ds0aN/367ijX/QvKVpuuu9N/TBhtf1yrX5evCOV5WQebc++M8vNSUtOKu45Dle0y/L0KfP/Eu77W7fp3r6qcM6++IRamd379uoPRMe0voN/9THn/5JM7Y+oNtf/FolUbbZDhVR7d8q/3eWaf36l7XhiUnKeXi53nV3s6OKdWm1Yanm3NdKi9at0UfrX9GWj+7UgGdv0c/fcG+GVaysqCj3MxVOfUTbs5br+v5RinF9ypjHnUdItO1spHJW5T4HADiaLsS066c+h1/U4rlzde4Z8/Xol8XKz/ep2+hx6r56kS64aple+9KnVq0T3AmkxMREty3IY/3XddpC/e/Id3TLne8q3xt25Ykyf0faYJ1+in05T1CPAX3UJWOcTu9tLydN6RmdVJKbpx1r1iq3wxE9Of86XXLJj/Qz68Ja+Pnn2qNUde7UxlpyfOsxKVPDt6zQqq8Cyn/vOa1ImqpLh7UKDuwwXJnn9ZCzN1MGadLZHfTFJ9nRtzlKRYfjmCGaPLaTsz/an3iS+pZ9rf0VqmKir8vOf69T/oSZmvSt4HH1djpVmWcmaMP63UdvI0XTZqDOndjdOoJeeaOV4gYoY+WibWdjlbNqdwAAoMlCzIEXb9K5P1yvnhfN1+///jvdODR4gU0eNFf/3PyoftT9bc0feZaueCZ0G+KbPB77ktJZ035xnfo88zPdu/5oNXy0+Ts8CUoIbbk1C09SonWZcTudIBRQmb9M3l5j9P2rLtGVV16sOdcu0J+XTNJxwdHiX8dxuvysXL3w0oda89T76nnZFGWErs+JrdQ6yW2XX4XWRdebZO2QumyzN1GJoX3pDduv4SKuS0CBsjKV+koqBBavxw4ldjy1BMpU5tbG2ONWuK4np6pd2CGNpCZl7MfVlLFyUbazxZczAGhCkS45jaK0tNS6IFkXIutiFAj4tXvTNiVNyNSsiRnqVfyR3txkV8F7dHh3tvLbD1Dm4t/piZu6a8OrnyjPWs3EhIAKC50HN77B022K7rrtW3ryvn/J51yco8+/ZjzqPmSwEtZvVF7GaE2cOFYTJ2TouK4dlRY4oj17C6uvKWhyqRpz8Wjtf26ZHl7bVRdN63V0679+XyvX5jp3a8r2/VtPvBzQqaf1Vo9o21zvUhJpXTzqOWq4Ut58Tit3Bh98KTuwTk+9lqBTx/RUUloXpR3YrI059p4u0Wer39YuZ6yaqlkZW17DMhZZI5azmH0yAcBcMTlVevyf6K4Jw3RctyE67tihGverLUqfdK46Lp+nU4acq5Mv+Ke8/VKsMQM68ML1yuh1uoaPPFuTHkjSpXNGqq26avSZnfTqD2dqyIxl2urM1P4nxLogXnSrbu69W1udWxkJ6h9l/jWVMu5a3TN9m64ePEanjDxfGX2na+GaPO15+icaOnKhVnztjhhPKl07Ww+7UBcWvaGPh35X5x3r9rR16anD98/USUPPUf/BN+uzzNu18LQ2So2yzQ0h0rq0HnmNll6dr0XDT9XJw6x1+fZiZc/5lW4Z1VqePpN1zcRtWjD6TA0bPlXzN3XS8cHJaih6GahRGatRUWm8cgYAqJ6nb3p6wCLrf/Xt00evvrraHVS1goJtblt1/CrOL5Iv7LzuTU5RSrJHZUUHlb23RO26dVGKv1C+xBS1SfKr4MAe7clPUmerf7tkdyJrPgX79ig3uYt6dPBa8yxRoHUbhT3OoEBJofJ9CWqTmuxU20ecv7dEBUUBJae0UqJ90S8tUn5pklLdGZVZ8yhUK6Um2/kuoJKDOdplBZYO3bqqU4o1jv0V63yv2rUtvx9TKykp6W5b1Wq+f4MCPmvby5LVtlXYDinZpNvHX69Ddz+vJePs70Rbsv6mSWe9p/9ee6fG5u1VXttj1TMtOSz/RNjmcGU+FVr7L6lNshLLKu1L+2vFhX4lpbRWUqVAFXFdXP68/dq5t0ipxx6nLqnhy/PrSHaWDiR2Ua80rwrtY9smUV5/peWGc4bJGmatnzWs7mUs7PhWXl6l7WyUclZDNS1PANAcefr2tUKMdRJtvBCDcI0VYiqyLsZHjmjXc7cq87HhevalK3RC6LoYCjHv3KupHdx+jaqKdUG9EWIAtGTceW+WcvTE7As185E0LVp6acXQEEhQ6zZJ8tb8jkc9VbEuAADUAzUxMRabmhi0FNTEAGjJqIkBAABGIsQAAAAjEWIAAICRCDEAAMBIhBgAAGAkQgwAADASIQYAABgp+M4z+x/7RTFOCwAAQPyjJgYAABjJ06dvuvO6XvuPQPbta7+x91V3EAAAQPyiJgYAABiJEAMAAIxEiAEAAEYixAAAACMRYgAAgJEIMQAAwEiEGAAAYCQrxAR4Ty8AADAONTEAAMBIhBgAAGAkQgwAADASIQYAABiJEAMAAIxEiAEAAEYixAAAACMRYgAAgJEIMQAAwEje4Ot67bf28uZeAABgDmpiAACAkQgxAADASIQYAABgJEIMAAAwEiEGAAAYiRADAACMRIgBAABGIsQAAAAjEWIAAICRvO4Le4N4ZS8AADAENTEAAMBIhBgAAGAkQgwAADASIQYAABiJEAMAAIxEiAEAAEYixAAAACMRYgAAgJEIMQAAwEhOiKnw1l4AAAADUBMDAACMRIgBAABGIsQAAAAjEWIAAICRCDEAAMBIhBgAAGAkQgwAADASIQYAABiJEAMAAIxUHmKCL+zltb0AAMAM1MQAAAAjEWIAAICRCDEAAMBIhBgAAGAkQgwAADASIQYAABiJEAMAAIxEiAEAAEYixAAAACN5FbDf0subegEAgFmoiQEAAEYixAAAACMRYgAAgJEIMQAAwEiEGAAAYCRCDAAAMBIhBgAAGIkQAwAAjESIAQAARgqGGOeFvby1FwAAmIOaGAAAYCRCDAAAMBIhBgAAGIkQAwAAjESIAQAARiLEAAAAIxFiAACAkQgxAADASIQYAABgJG/5e3qtFt7ZCwAATEFNDAAAMBIhBgAAGIkQAwAAjESIAQAARiLEAAAAIxFiAACAkQgxAADASIQYAABgJEIMAAAwkhNieFMvAAAwDTUxAADASIQYAABgJEIMAAAwEiEGAAAYiRADAACMRIgBAABGIsQAAAAjEWIAAICRCDEAAMBIVoix39cb4K29AADAKNTEAAAAIxFiAACAkQgxAADASIQYAABgJEIMAAAwEiEGAAAYiRADAACMRIgBAABGIsQAAAAjEWIAAICRwkJMIPgXCAAAAAxATQwAADASIQYAABiJEAMAAIxEiAEAAEYixAAAACMRYgAAgJEIMQAAwEiEGAAAYCRCDAAAMJKXt/QCAAATURMDAACMRIgBAABGIsQAAAAjEWIAAICRCDEAAMBIhBgAAGAkQgwAADASIQYAABiJEAMAAIzkdV7Ya//Dm3sBAIBBqIkBAABGIsQAAAAjEWIAAICRCDEAAMBIhBgAAGAkQgwAADASIQYAABiJEAMAAIxEiAEAAEZyQgwv6wUAAKahJgYAABiJEAMAAIxEiAEAAEYixAAAACMRYgAAgJEIMQAAwEiEGAAAYCRCDAAAMBIhBgAAGMkKMbyvFwAAmIeaGAAAYCRCDAAAMBIhBgAAGIkQAwAAjESIAQAARiLEAAAAIxFiAACAkQgxAADASIQYAABgpEohhrf3AgAAM1ATAwAAjESIAQAARiLEAAAAIxFiAACAkQgxAADASIQYAABgJEIMAAAwEiEGAAAYiRADAACM5A2+pDfg/OB9vQAAwBTUxAAAACMRYgAAgJEIMQAAwEiEGAAAYCRCDAAAMBIhBgAAGIkQAwAAjESIAQAARiLEAAAAI4WFGN7XCwAAzEFNDAAAMBIhBgAAGIkQAwAAjESIAQAARiLEAAAAIxFiAACAkQgxAADASIQYAABgJEIMAAAwUjDEOC/r9TitAAAAJqAmBgAAGIkQAwAAjESIAQAARiLEAAAAIxFiAACAkQgxAADASIQYAABgJEIMAAAwEiEGAAAYKSzEOK/tBQAAMAI1MQAAwEiEGAAAYCRCDAAAMBIhBgAAGIkQAwAAjESIAQAARiLEAAAAIxFiAACAkQgxAADASIQYAABgJEIMAAAwEiEGAAAYiRADAACMRIgBAABGIsQAAAAjEWIAAICRCDEAAMBIhBgAAGAkQgwAADCSN+C2qLwFAAAg/lETAwAAjESIAQAARiLEAAAAIxFiAACAkQgxAADASIQYAABgJEIMAAAwEiEGAAAYiRADAACMRIgBAABGIsQAAAAjEWIAAICRCDEAAMBIhBgAAGAkQgwAADASIQYAABiJEAMAAIxEiAEAAEYixAAAACMRYgAAgJEIMQAAwEiEGAAAYCRCDAAAMBIhBgAAGIkQAwAAjESIAQAARiLEAAAAIxFiAACAkQgxAADASIQYAABgJEIMAAAwEiEGAAAYiRADAACMRIgBAABGIsQAAAAjEWIAAICRCDEAAMBIhBgAAGAkQgwAADCSFWICbisAAIA5qIkBAABGIsQAAAAjEWIAAICRCDEAAMBIhBgAAGAkQgwAADASIQYAABiJEAMAAIxEiAEAAEayQown2Ob+AAAAMAE1MQAAwEiEGAAAYCRCDAAAMBIhBgAAGIkQAwAAjESIAQAARiLEAAAAIxFiAACAkQgxAADASIQYAABgJEIMAAAwEiEGAAAYiRADAACMRIgBAABGIsQAAAAjEWIAAICRCDEAAMBIhBgAAGAkQgwAADASIQYAABiJEAMAAIxEiAEAAEYixAAAACMRYgAAgJEIMQAAwEiEGAAAYCRCDAAAMBIhBgAAGIkQAwAAjESIAQAARiLEAAAAIxFiAACAkQgxAADASIQYAABgJEIMAAAwEiEGAAAYiRADAACMRIgBAABGIsQAAAAjeT32v84/AAAA5qAmBgAAGIkQAwAAjESIAQAARiLEAAAAI4WFGA/P9wIAAGN4SS4AAMBEXgWCLXaWKfX7tW/fvmAPAACAOObWxASrY4qLirVl61anHQAAIJ45z8SE7igVlxRr65YtbhcAAED8skKMG2GsH3lH8vTYY49r165dwX4AAABxKvjtJDfH+Hw+5eTk6MGHHgr2AAAAiFMJx6Qdc9vRG0pSUXGRDuw/oG3btmnAgAFq3769OwQAAKDp2XeM7rjjTnmO7907ELC/oWT94/znflupQ4f26tatmy6dNUv9+vVT//791aVLl+BAAACAGLK/Pb1lyxZt3bpV//fYY8rJydH/AxhXcMCbP295AAAAAElFTkSuQmCC;" vertex="1" parent="1">
          <mxGeometry x="1340" y="200" width="561" height="453" as="geometry" />
        </mxCell>
      </root>
    </mxGraphModel>
  </diagram>
</mxfile>
